<?xml version="1.0" encoding="UTF-8" standalone="no"?>
<!-- Created with Inkscape (http://www.inkscape.org/) -->

<svg
   xmlns:dc="http://purl.org/dc/elements/1.1/"
   xmlns:cc="http://creativecommons.org/ns#"
   xmlns:rdf="http://www.w3.org/1999/02/22-rdf-syntax-ns#"
   xmlns:svg="http://www.w3.org/2000/svg"
   xmlns="http://www.w3.org/2000/svg"
   xmlns:sodipodi="http://sodipodi.sourceforge.net/DTD/sodipodi-0.dtd"
   xmlns:inkscape="http://www.inkscape.org/namespaces/inkscape"
   width="76.734741"
   height="50.612598"
   id="svg2"
   version="1.1"
   inkscape:version="0.48.2 r9819"
   sodipodi:docname="Новый документ 1">
  <defs
     id="defs4">
 <style
   id="style2989"
   type="text/css">
   
    .str0 {stroke:#0082C3;stroke-width:0.0762}
    .fil1 {fill:#00569B}
    .fil0 {fill:#0082C3}
    .fil2 {fill:#0082C3;fill-rule:nonzero}
   
  </style>

  </defs>
  <sodipodi:namedview
     id="base"
     pagecolor="#ffffff"
     bordercolor="#666666"
     borderopacity="1.0"
     inkscape:pageopacity="0.0"
     inkscape:pageshadow="2"
     inkscape:zoom="0.49497475"
     inkscape:cx="748.71267"
     inkscape:cy="-200.97424"
     inkscape:document-units="px"
     inkscape:current-layer="layer1"
     showgrid="false"
     fit-margin-top="0"
     fit-margin-left="0"
     fit-margin-right="0"
     fit-margin-bottom="0"
     inkscape:window-width="1280"
     inkscape:window-height="737"
     inkscape:window-x="-8"
     inkscape:window-y="-8"
     inkscape:window-maximized="1" />
  <metadata
     id="metadata7">
    <rdf:RDF>
      <cc:Work
         rdf:about="">
        <dc:format>image/svg+xml</dc:format>
        <dc:type
           rdf:resource="http://purl.org/dc/dcmitype/StillImage" />
        <dc:title></dc:title>
      </cc:Work>
    </rdf:RDF>
  </metadata>
  <g
     inkscape:label="Layer 1"
     inkscape:groupmode="layer"
     id="layer1"
     transform="translate(-510.23179,-572.78984)">
    <g
       style="fill-rule:evenodd"
       id="g3010"
       transform="matrix(3.543307,0,0,3.543307,159.00148,142.39851)">
      <g
         id="Layer_x0020_1">
  <metadata
   id="CorelCorpID_0Corel-Layer" />

  <rect
   id="rect2993"
   height="13.8546"
   width="1.6647"
   transform="matrix(0.635963,0.21517,-0.21517,0.635963,110.918,121.466)"
   class="fil0"
   x="0"
   y="0"
   style="fill:#0082c3" />

  <rect
   id="rect2995"
   height="13.8546"
   width="1.6647"
   transform="matrix(0.492824,0.442624,-0.204175,0.227246,106.625,122.94)"
   class="fil1"
   x="0"
   y="0"
   style="fill:#00569b" />

  <rect
   id="rect2997"
   height="13.8546"
   width="1.6647"
   transform="matrix(-0.492824,0.442624,0.204175,0.227246,104.616,125.349)"
   class="fil1"
   x="0"
   y="0"
   style="fill:#00569b" />

  <rect
   id="rect2999"
   height="13.8546"
   width="1.6647"
   transform="matrix(-0.492824,0.442624,0.204175,0.227246,113.696,122.94)"
   class="fil1"
   x="0"
   y="0"
   style="fill:#00569b" />

  <rect
   id="rect3001"
   height="13.8546"
   width="1.6647"
   transform="matrix(0.492824,0.442624,-0.204175,0.227246,115.705,125.349)"
   class="fil1"
   x="0"
   y="0"
   style="fill:#00569b" />

  <path
   id="path3003"
   d="m 102.238,133.274 c 0,-0.208 -0.0679,-0.3648 -0.2037,-0.4702 -0.1358,-0.1055 -0.3222,-0.1582 -0.5591,-0.1582 l -0.8407,0 c -0.104,0 -0.1914,0.006 -0.2622,0.0173 -0.0707,0.0116 -0.1307,0.0268 -0.1798,0.0455 -0.0491,0.0188 -0.0903,0.0412 -0.1235,0.0672 -0.0332,0.026 -0.0628,0.0535 -0.0888,0.0823 l 0.0346,-0.208 -0.3163,0 -0.5287,3.0076 0.3163,0 0.1907,-1.1008 c 0.0144,0.0318 0.0361,0.0621 0.065,0.091 0.0289,0.0289 0.0686,0.0549 0.1192,0.078 0.0505,0.0231 0.1134,0.0412 0.1885,0.0542 0.0751,0.013 0.1661,0.0195 0.273,0.0195 l 0.7757,0 c 0.312,0 0.5547,-0.0773 0.7281,-0.2318 0.1733,-0.1546 0.2831,-0.359 0.3293,-0.6133 0.0289,-0.1646 0.0499,-0.3026 0.0629,-0.4138 0.013,-0.1112 0.0195,-0.2001 0.0195,-0.2665 z m -2.4745,0.8017 c 0,-0.0809 0.0094,-0.1676 0.0281,-0.26 0.0188,-0.0925 0.0398,-0.2023 0.0629,-0.3294 0.0144,-0.0809 0.0411,-0.1567 0.0802,-0.2275 0.039,-0.0708 0.091,-0.1322 0.156,-0.1842 0.065,-0.052 0.1415,-0.0924 0.2296,-0.1213 0.0882,-0.0289 0.19,-0.0433 0.3056,-0.0433 l 0.6933,0 c 0.208,0 0.3619,0.0346 0.4616,0.104 0.0996,0.0693 0.1495,0.1791 0.1495,0.3293 0,0.0491 -0.008,0.1264 -0.0239,0.2319 -0.0159,0.1054 -0.0368,0.2318 -0.0628,0.3791 -0.0347,0.1965 -0.1156,0.3417 -0.2427,0.4356 -0.1271,0.0939 -0.3163,0.1408 -0.5677,0.1408 l -0.6934,0 c -0.2022,0 -0.3488,-0.0426 -0.4398,-0.1278 -0.091,-0.0853 -0.1365,-0.1943 -0.1365,-0.3272 z m 3.5015,-0.598 c -0.234,0 -0.4117,0.0447 -0.533,0.1343 -0.1213,0.0896 -0.1965,0.2123 -0.2253,0.3684 -0.009,0.0548 -0.0159,0.1011 -0.0217,0.1386 -0.006,0.0376 -0.0101,0.0701 -0.013,0.0975 -0.003,0.0275 -0.004,0.0513 -0.004,0.0715 0,0.0174 0,0.0347 0,0.052 0,0.078 0.0151,0.1452 0.0455,0.2016 0.0303,0.0563 0.0707,0.1025 0.1213,0.1386 0.0506,0.0361 0.1091,0.0629 0.1755,0.0802 0.0665,0.0173 0.1372,0.026 0.2124,0.026 l 1.3607,0 c 0.1011,0 0.1856,-0.0116 0.2535,-0.0347 0.0679,-0.0231 0.1221,-0.0679 0.1625,-0.1343 l -0.0303,0.169 0.312,0 0.2297,-1.2871 c 0.0115,-0.0664 0.018,-0.1249 0.0195,-0.1755 0.001,-0.0505 0.002,-0.0917 0.002,-0.1235 0,-0.0722 -0.013,-0.1416 -0.039,-0.208 -0.026,-0.0665 -0.0687,-0.1257 -0.1279,-0.1777 -0.0592,-0.052 -0.1379,-0.0932 -0.2362,-0.1235 -0.0982,-0.0303 -0.2181,-0.0455 -0.3597,-0.0455 l -0.988,0 c -0.2456,0 -0.437,0.0491 -0.5742,0.1473 -0.1372,0.0983 -0.2218,0.2384 -0.2535,0.4204 l -0.009,0.052 0.3207,0 0.009,-0.052 c 0.0173,-0.1011 0.0729,-0.177 0.1668,-0.2275 0.0939,-0.0506 0.2333,-0.0758 0.4182,-0.0758 l 0.91,0 c 0.1647,0 0.2817,0.0325 0.3511,0.0975 0.0693,0.065 0.104,0.148 0.104,0.2491 0,0.0145 -7e-4,0.0304 -0.002,0.0477 -10e-4,0.0173 -0.004,0.0332 -0.007,0.0477 l -0.052,0.3033 c -0.0144,-0.026 -0.0311,-0.0498 -0.0498,-0.0715 -0.0188,-0.0216 -0.0463,-0.0404 -0.0824,-0.0563 -0.0361,-0.0159 -0.0845,-0.0282 -0.1451,-0.0368 -0.0607,-0.009 -0.1402,-0.013 -0.2384,-0.013 l -1.1831,0 z m 1.2048,0.2643 c 0.1358,0 0.239,0.0246 0.3098,0.0737 0.0708,0.0491 0.1062,0.1242 0.1062,0.2253 0,0.052 -0.007,0.1069 -0.0195,0.1647 -0.013,0.0578 -0.0397,0.1098 -0.0802,0.156 -0.0404,0.0462 -0.0968,0.0845 -0.169,0.1148 -0.0722,0.0304 -0.1661,0.0456 -0.2817,0.0456 l -1.144,0 c -0.1618,0 -0.2709,-0.0217 -0.3272,-0.0651 -0.0564,-0.0433 -0.0845,-0.1025 -0.0845,-0.1776 0,-0.0231 7e-4,-0.0506 0.002,-0.0824 0.001,-0.0317 0.009,-0.0794 0.0239,-0.143 0.009,-0.052 0.0224,-0.0975 0.0411,-0.1365 0.0188,-0.039 0.0455,-0.0715 0.0802,-0.0975 0.0347,-0.026 0.0795,-0.0455 0.1344,-0.0585 0.0548,-0.013 0.1242,-0.0195 0.208,-0.0195 l 1.2004,0 z m 2.3314,-1.0964 c -0.3004,0 -0.5337,0.0737 -0.6999,0.221 -0.1661,0.1474 -0.2737,0.3568 -0.3228,0.6284 -0.0289,0.1647 -0.0477,0.3041 -0.0563,0.4182 -0.009,0.1141 -0.013,0.1972 -0.013,0.2492 0,0.1906 0.0577,0.3423 0.1733,0.455 0.1156,0.1127 0.3077,0.169 0.5764,0.169 l 0.8797,0 c 0.1069,0 0.1972,-0.007 0.2708,-0.0217 0.0737,-0.0144 0.1351,-0.0332 0.1842,-0.0563 0.0491,-0.0231 0.0889,-0.0498 0.1192,-0.0802 0.0303,-0.0303 0.0542,-0.0614 0.0715,-0.0931 l -0.0693,0.3986 c -0.0318,0.1734 -0.1048,0.3005 -0.2189,0.3814 -0.1141,0.0809 -0.2781,0.1213 -0.4918,0.1213 l -0.8061,0 c -0.1705,0 -0.2918,-0.0238 -0.364,-0.0715 -0.0722,-0.0476 -0.1084,-0.1134 -0.1084,-0.1971 0,-0.0174 0.002,-0.0304 0.004,-0.039 l -0.3164,0 c -0.003,0.0144 -0.005,0.0296 -0.007,0.0455 -10e-4,0.0158 -0.002,0.031 -0.002,0.0455 0,0.0635 0.0151,0.1242 0.0455,0.182 0.0303,0.0578 0.0722,0.109 0.1256,0.1538 0.0535,0.0448 0.117,0.0802 0.1907,0.1062 0.0737,0.026 0.1553,0.039 0.2449,0.039 l 1.0097,0 c 0.3178,0 0.554,-0.0643 0.7085,-0.1929 0.1546,-0.1285 0.2521,-0.3141 0.2925,-0.5568 l 0.4074,-2.3055 -0.312,0 -0.039,0.234 c -0.0202,-0.0289 -0.0441,-0.057 -0.0715,-0.0845 -0.0275,-0.0274 -0.0629,-0.052 -0.1062,-0.0737 -0.0433,-0.0216 -0.0975,-0.0397 -0.1625,-0.0541 -0.065,-0.0145 -0.1437,-0.0217 -0.2362,-0.0217 l -0.9014,0 z m 1.3824,0.7367 c 0,0.0607 -0.008,0.1322 -0.0238,0.2145 -0.0159,0.0824 -0.0368,0.2001 -0.0628,0.3532 -0.0145,0.0809 -0.0412,0.1567 -0.0802,0.2275 -0.039,0.0708 -0.091,0.1322 -0.156,0.1842 -0.065,0.052 -0.1416,0.0925 -0.2297,0.1213 -0.0881,0.0289 -0.1885,0.0434 -0.3012,0.0434 l -0.715,0 c -0.208,0 -0.3597,-0.034 -0.455,-0.1019 -0.0954,-0.0678 -0.1431,-0.1784 -0.1431,-0.3315 0,-0.0606 0.005,-0.135 0.0152,-0.2232 0.0101,-0.0881 0.0282,-0.2044 0.0542,-0.3488 0.0375,-0.2167 0.1184,-0.3734 0.2427,-0.4702 0.1242,-0.0968 0.3149,-0.1452 0.572,-0.1452 l 0.715,0 c 0.1965,0 0.3402,0.0426 0.4312,0.1279 0.091,0.0852 0.1365,0.2015 0.1365,0.3488 z m 3.1592,-0.052 c 0,0.0173 0,0.0347 0,0.052 0,0.0173 -0.003,0.0361 -0.009,0.0564 l -2.1062,0 c 0.0318,-0.1676 0.1055,-0.2983 0.2211,-0.3922 0.1155,-0.0939 0.2556,-0.1409 0.4203,-0.1409 l 0.9794,0 c 0.1618,0 0.2846,0.0383 0.3684,0.1149 0.0838,0.0765 0.1256,0.1798 0.1256,0.3098 z m -1.8114,1.4561 1.1094,0 c 0.1473,0 0.273,-0.0173 0.377,-0.052 0.104,-0.0347 0.1907,-0.0816 0.26,-0.1408 0.0694,-0.0593 0.1228,-0.1272 0.1604,-0.2037 0.0375,-0.0766 0.0635,-0.1582 0.078,-0.2449 l 0.009,-0.0433 -0.3121,0 -0.009,0.0433 c -0.0174,0.1011 -0.0715,0.1893 -0.1625,0.2644 -0.091,0.0751 -0.2218,0.1127 -0.3922,0.1127 l -1.0184,0 c -0.1503,0 -0.2709,-0.0304 -0.3619,-0.0911 -0.091,-0.0606 -0.1365,-0.169 -0.1365,-0.325 0,-0.0115 0,-0.0245 0,-0.039 0,-0.0173 0.002,-0.0404 0.004,-0.0693 0.003,-0.0289 0.007,-0.0665 0.013,-0.1127 0.006,-0.0462 0.0159,-0.1069 0.0304,-0.182 l 2.4138,0 c 0.0202,-0.1069 0.0339,-0.195 0.0412,-0.2643 0.007,-0.0694 0.0108,-0.1286 0.0108,-0.1777 0,-0.0867 -0.0152,-0.1676 -0.0455,-0.2427 -0.0303,-0.0751 -0.078,-0.1409 -0.143,-0.1972 -0.065,-0.0563 -0.1481,-0.1011 -0.2492,-0.1343 -0.1011,-0.0333 -0.221,-0.0499 -0.3597,-0.0499 l -0.8884,0 c -0.2975,0 -0.5352,0.0737 -0.7129,0.221 -0.1776,0.1474 -0.291,0.3525 -0.3401,0.6154 -0.0174,0.104 -0.0311,0.1921 -0.0412,0.2644 -0.0101,0.0722 -0.0181,0.1358 -0.0238,0.1906 -0.006,0.0549 -0.009,0.1026 -0.0109,0.1431 -0.001,0.0404 -0.002,0.0808 -0.002,0.1213 0,0.0838 0.0158,0.1611 0.0476,0.2318 0.0318,0.0708 0.078,0.1337 0.1387,0.1886 0.0607,0.0548 0.1343,0.0975 0.221,0.1278 0.0867,0.0303 0.1849,0.0455 0.2947,0.0455 z m 3.9305,-1.4171 -1.3824,0 -0.0563,0.3164 1.3824,0 0.0563,-0.3164 z m 1.2178,-1.5904 -0.312,0 -0.5287,3.0075 0.312,0 0.5287,-3.0075 z m 0.8624,1.6988 c -0.234,0 -0.4117,0.0447 -0.533,0.1343 -0.1213,0.0896 -0.1965,0.2123 -0.2253,0.3684 -0.009,0.0548 -0.0159,0.1011 -0.0217,0.1386 -0.006,0.0376 -0.0101,0.0701 -0.013,0.0975 -0.003,0.0275 -0.004,0.0513 -0.004,0.0715 0,0.0174 0,0.0347 0,0.052 0,0.078 0.0151,0.1452 0.0455,0.2016 0.0303,0.0563 0.0707,0.1025 0.1213,0.1386 0.0506,0.0361 0.1091,0.0629 0.1755,0.0802 0.0665,0.0173 0.1372,0.026 0.2124,0.026 l 1.3607,0 c 0.1011,0 0.1856,-0.0116 0.2535,-0.0347 0.0679,-0.0231 0.1221,-0.0679 0.1625,-0.1343 l -0.0303,0.169 0.312,0 0.2297,-1.2871 c 0.0115,-0.0664 0.018,-0.1249 0.0195,-0.1755 0.001,-0.0505 0.002,-0.0917 0.002,-0.1235 0,-0.0722 -0.013,-0.1416 -0.039,-0.208 -0.026,-0.0665 -0.0687,-0.1257 -0.1279,-0.1777 -0.0592,-0.052 -0.1379,-0.0932 -0.2362,-0.1235 -0.0982,-0.0303 -0.2181,-0.0455 -0.3597,-0.0455 l -0.988,0 c -0.2456,0 -0.437,0.0491 -0.5742,0.1473 -0.1372,0.0983 -0.2218,0.2384 -0.2535,0.4204 l -0.009,0.052 0.3207,0 0.009,-0.052 c 0.0173,-0.1011 0.0729,-0.177 0.1668,-0.2275 0.0939,-0.0506 0.2333,-0.0758 0.4182,-0.0758 l 0.91,0 c 0.1647,0 0.2817,0.0325 0.3511,0.0975 0.0693,0.065 0.104,0.148 0.104,0.2491 0,0.0145 -7e-4,0.0304 -0.002,0.0477 -0.001,0.0173 -0.004,0.0332 -0.007,0.0477 l -0.052,0.3033 c -0.0144,-0.026 -0.0311,-0.0498 -0.0498,-0.0715 -0.0188,-0.0216 -0.0463,-0.0404 -0.0824,-0.0563 -0.0361,-0.0159 -0.0845,-0.0282 -0.1451,-0.0368 -0.0607,-0.009 -0.1402,-0.013 -0.2384,-0.013 l -1.1831,0 z m 1.2048,0.2643 c 0.1358,0 0.239,0.0246 0.3098,0.0737 0.0708,0.0491 0.1062,0.1242 0.1062,0.2253 0,0.052 -0.006,0.1069 -0.0195,0.1647 -0.013,0.0578 -0.0397,0.1098 -0.0802,0.156 -0.0404,0.0462 -0.0968,0.0845 -0.169,0.1148 -0.0722,0.0304 -0.1661,0.0456 -0.2817,0.0456 l -1.144,0 c -0.1618,0 -0.2709,-0.0217 -0.3272,-0.0651 -0.0564,-0.0433 -0.0845,-0.1025 -0.0845,-0.1776 0,-0.0231 7e-4,-0.0506 0.002,-0.0824 0.002,-0.0317 0.009,-0.0794 0.0239,-0.143 0.009,-0.052 0.0224,-0.0975 0.0411,-0.1365 0.0188,-0.039 0.0455,-0.0715 0.0802,-0.0975 0.0347,-0.026 0.0795,-0.0455 0.1344,-0.0585 0.0548,-0.013 0.1242,-0.0195 0.208,-0.0195 l 1.2004,0 z m 1.4084,0.8104 c 0.026,0.0318 0.0534,0.0621 0.0823,0.091 0.0289,0.0289 0.0643,0.0542 0.1062,0.0758 0.0419,0.0217 0.0939,0.039 0.156,0.052 0.0621,0.013 0.1408,0.0195 0.2362,0.0195 l 0.8407,0 c 0.1733,0 0.3214,-0.0187 0.4442,-0.0563 0.1228,-0.0376 0.2253,-0.0896 0.3077,-0.156 0.0823,-0.0665 0.1466,-0.1459 0.1928,-0.2384 0.0462,-0.0924 0.0795,-0.195 0.0997,-0.3076 0.0347,-0.1994 0.0599,-0.3583 0.0758,-0.4767 0.0159,-0.1185 0.0239,-0.2081 0.0239,-0.2687 0,-0.1994 -0.065,-0.3575 -0.1951,-0.4746 -0.13,-0.117 -0.3351,-0.1755 -0.6153,-0.1755 l -0.7974,0 c -0.0953,0 -0.177,0.005 -0.2449,0.0152 -0.0678,0.0101 -0.1278,0.0253 -0.1798,0.0455 -0.052,0.0202 -0.0968,0.0455 -0.1343,0.0758 -0.0376,0.0304 -0.0723,0.0658 -0.104,0.1062 l 0.1906,-1.1007 -0.312,0 -0.5287,3.0075 0.312,0 0.0434,-0.234 z m 0.0866,-0.4854 c 0,-0.0578 0.009,-0.135 0.0282,-0.2318 0.0188,-0.0968 0.0397,-0.2145 0.0628,-0.3532 0.0289,-0.1647 0.1077,-0.3019 0.2362,-0.4117 0.1286,-0.1098 0.3084,-0.1647 0.5396,-0.1647 l 0.6933,0 c 0.2138,0 0.3698,0.0376 0.4681,0.1127 0.0982,0.0751 0.1473,0.1834 0.1473,0.325 0,0.0491 -0.008,0.1235 -0.0238,0.2232 -0.0159,0.0997 -0.0398,0.2275 -0.0715,0.3835 -0.0405,0.1994 -0.1221,0.3453 -0.2449,0.4377 -0.1228,0.0925 -0.3098,0.1387 -0.5612,0.1387 l -0.6934,0 c -0.2022,0 -0.3495,-0.0434 -0.442,-0.13 -0.0924,-0.0867 -0.1387,-0.1965 -0.1387,-0.3294 z"
   class="fil2 str0"
   inkscape:connector-curvature="0"
   style="fill:#0082c3;fill-rule:nonzero;stroke:#0082c3;stroke-width:0.0762" />

 </g>
    </g>
  </g>
</svg>
